<svg xmlns="http://www.w3.org/2000/svg" viewBox="0 0 420.31 183.445"><g fill="#ed583a"><path d="M156.947 29.686a7.26 7.26 0 0 1-7.263-7.27 7.26 7.26 0 0 1 7.263-7.271 7.262 7.262 0 0 1 7.262 7.27 7.26 7.26 0 0 1-7.262 7.27zm0-29.644c-12.347 0-22.345 10.013-22.345 22.373 0 2.636.479 5.155 1.314 7.503H58.73c-1.125 5.511-3.573 10.491-6.844 14.823l45.673-.007v75.694c5.499 1.132 10.467 3.576 14.784 6.85V44.742l44.603.057c12.344 0 22.345-10.013 22.345-22.373S169.292.054 156.947.054"/><path d="M22.356 29.686a7.262 7.262 0 0 1-7.265-7.27c0-4.023 3.252-7.271 7.265-7.271s7.264 3.248 7.264 7.27a7.26 7.26 0 0 1-7.264 7.27zM127.32.01 22.356.043C10.008.043.006 10.056.006 22.415s10.002 22.373 22.35 22.373c12.343 0 22.342-10.013 22.342-22.373 0-2.672-.491-5.223-1.348-7.598h77.122c1.136-5.505 3.58-10.477 6.849-14.808M90.01 164.193a7.262 7.262 0 0 1-7.265-7.272c0-4.02 3.25-7.27 7.265-7.27a7.26 7.26 0 0 1 7.264 7.27 7.261 7.261 0 0 1-7.264 7.272zm0-29.645c-2.65 0-5.18.485-7.537 1.332V59.56H67.679l.008 96.893c-.002.161-.025.32-.025.481 0 12.36 10 22.378 22.347 22.378 12.343 0 22.345-10.018 22.345-22.378 0-12.361-10.002-22.372-22.345-22.372"/></g><path d="M150.952 146.56c1.268 0 2.335-.432 3.2-1.297.865-.923 1.297-1.99 1.297-3.2v-40.214c0-6.515 2.306-12.078 6.918-16.691 4.613-4.612 10.177-6.918 16.692-6.919h5.448c1.21 0 2.277-.432 3.2-1.297.864-.864 1.297-1.931 1.297-3.2 0-1.268-.433-2.334-1.297-3.2-.923-.864-1.99-1.296-3.2-1.297h-5.449c-8.993 0-16.661 3.171-23.003 9.513-6.4 6.4-9.6 14.096-9.6 23.09v40.214c0 1.211.432 2.278 1.297 3.2.923.865 1.99 1.297 3.2 1.297m58.81-97.029c1.903 0 3.517-.663 4.843-1.99 1.326-1.325 1.989-2.94 1.989-4.842 0-1.902-.663-3.517-1.99-4.843-1.325-1.326-2.94-1.989-4.842-1.989-1.903 0-3.517.663-4.843 1.99-1.326 1.325-1.989 2.94-1.989 4.842 0 1.903.663 3.517 1.99 4.843 1.325 1.326 2.94 1.99 4.842 1.989m4.843 92.189c0 1.326-.461 2.48-1.384 3.46-.98.922-2.133 1.383-3.459 1.383s-2.48-.461-3.46-1.384c-.922-.98-1.383-2.133-1.383-3.459V68.297c0-1.326.461-2.479 1.384-3.46.98-.922 2.133-1.383 3.459-1.383s2.48.461 3.46 1.384c.922.98 1.383 2.133 1.383 3.459v73.422m29.227-40.569c0-6.457 2.277-11.963 6.832-16.518 4.555-4.555 10.061-6.832 16.518-6.832h.26c6.457 0 11.962 2.277 16.517 6.832 4.613 4.555 6.919 10.061 6.919 16.518v12.021c0 6.457-2.306 11.963-6.919 16.518-4.554 4.612-10.06 6.919-16.518 6.919h-.259c-6.457 0-11.963-2.307-16.518-6.919-4.555-4.555-6.832-10.061-6.832-16.518V101.15m-4.497 78.957c1.21 0 2.249-.432 3.113-1.297.923-.865 1.384-1.932 1.384-3.2v-40.127c6.342 6.688 14.125 10.032 23.35 10.032h.26c8.936 0 16.574-3.142 22.916-9.426 6.285-6.342 9.427-13.981 9.427-22.917V101.15c0-8.937-3.142-16.547-9.427-22.831-6.342-6.342-13.98-9.513-22.917-9.513h-.259c-8.936 0-16.547 3.17-22.831 9.513-6.342 6.284-9.513 13.895-9.513 22.83v74.46c0 1.269.432 2.336 1.297 3.2.865.865 1.932 1.298 3.2 1.298m99.397-33.987a4.01 4.01 0 0 0 1.816.432c1.903 0 3.257-.893 4.065-2.68.519-1.096.547-2.22.086-3.373-.403-1.153-1.182-1.99-2.335-2.508-4.727-2.076-8.504-5.304-11.329-9.686-2.825-4.382-4.237-9.138-4.237-14.27V40.269c0-1.21-.433-2.249-1.298-3.113-.864-.865-1.931-1.298-3.2-1.298-1.21 0-2.248.433-3.113 1.298-.865.864-1.297 1.902-1.297 3.113v73.768c0 6.918 1.903 13.289 5.708 19.112 3.747 5.823 8.792 10.147 15.134 12.972m45.99-.771c9.167 0 16.95-3.344 23.35-10.032v12.194c0 6.457-2.277 11.963-6.832 16.518-4.612 4.555-10.118 6.832-16.518 6.832h-.26c-4.785 0-9.138-1.355-13.058-4.065-3.46-2.306-6.112-5.333-7.957-9.08-.519-1.096-1.355-1.845-2.508-2.249-1.153-.403-2.306-.317-3.459.26-1.095.519-1.845 1.355-2.248 2.508-.404 1.153-.317 2.306.26 3.459 2.478 5.131 6.11 9.311 10.896 12.54 5.42 3.69 11.444 5.535 18.075 5.535h.26c8.878 0 16.489-3.142 22.83-9.427 6.285-6.342 9.427-13.952 9.427-22.83v-74.03c0-1.211-.433-2.249-1.297-3.114-.865-.922-1.932-1.383-3.2-1.384-1.21 0-2.249.462-3.113 1.384-.865.865-1.298 1.903-1.298 3.113v39.608c0 6.4-2.277 11.877-6.832 16.431-4.612 4.555-10.118 6.832-16.518 6.832h-.259c-6.457 0-11.963-2.277-16.518-6.832-4.555-4.554-6.832-10.032-6.832-16.43V73.48c0-1.211-.432-2.249-1.297-3.114-.865-.922-1.903-1.383-3.113-1.384-1.269 0-2.335.462-3.2 1.384-.865.865-1.297 1.903-1.297 3.113v39.608c0 8.88 3.142 16.46 9.426 22.744 6.342 6.342 13.952 9.513 22.83 9.513h.26" stroke="#1690c6" stroke-width="6.668" fill="#1690c6"/></svg>